<svg width="1121" height="902" viewBox="0 0 1121 902" fill="none" xmlns="http://www.w3.org/2000/svg">
<g filter="url(#filter0_f_1_14)">
<circle cx="434" cy="330" r="280" fill="#FEFEFE"/>
</g>
<circle cx="434" cy="330" r="280" fill="#FEFEFE"/>
<path d="M470.311 129.997C485.07 125.933 485.122 112.444 488.919 102.118C491.782 94.3311 495.43 84.1663 491.295 76.9733C485.448 66.7991 494.628 54.6612 505.925 57.839C577.42 77.9516 613.353 101.008 653.703 153.141C677.26 185.236 687.259 203.537 700.05 236.66C710.24 279.295 713.409 303.78 714.759 342.606C714.938 347.77 714.685 352.958 713.971 358.076C707.833 402.074 699.356 428.069 679.518 467.056C677.288 471.438 674.676 475.65 671.76 479.608C643.738 517.643 623.986 538.533 588.688 566.044C584.224 569.524 579.414 572.581 574.364 575.139C531.719 596.741 502.59 605.373 454.089 611.73C447.321 612.616 440.468 612.72 433.674 612.073C393.786 608.271 368.071 603.445 337.057 592.832C322.643 587.9 308.978 579.569 301.58 566.251C294.601 553.686 292.856 541.644 297.883 531.493C305.358 516.399 331.668 513.621 331.272 503.821C324.982 467.475 364.661 474.137 367.153 457.03C367.363 455.592 367.357 454.079 367.172 452.514C364.357 428.785 364.309 402.179 383.22 387.57C384.899 386.274 386.399 385.019 387.719 383.803C406.219 366.762 384.111 328.718 401.041 310.117C417.985 291.501 385.302 293.591 384.097 258.798C382.892 224.005 429.264 252.528 421.971 222.07C414.679 191.611 436.26 169.441 443.899 166.726C451.538 164.01 448.384 136.035 470.311 129.997Z" fill="#E0E0E0" stroke="#E0E0E0"/>
<path d="M253.745 218.54C247.352 219.555 243.426 221.695 239.406 226.337C238.031 227.923 235.182 226.852 235.433 224.768C236.58 215.254 237.525 210.495 239.5 206.5C243.054 198.052 246.248 194.748 255 192.5C259.172 191.786 262.279 199.172 274.828 216.266C274.94 216.419 275.078 216.56 275.228 216.675C281.448 221.414 285.611 223.661 294.204 226.406C294.398 226.468 294.589 226.562 294.756 226.68C305.003 233.886 310.101 237.92 311.361 240.747C311.859 241.864 310.544 242.441 309.487 241.826C284.415 227.226 270.813 220.284 254.255 218.527C254.086 218.509 253.912 218.513 253.745 218.54Z" fill="#E0E0E0"/>
<path d="M300.693 152.621L295.272 146.898C294.238 145.807 292.414 146.204 291.883 147.61C289.909 152.839 287.957 156.527 285.079 160.67C283.982 162.25 285.433 164.378 287.247 163.74C292.64 161.845 296.366 159.598 300.668 155.357C301.426 154.61 301.426 153.394 300.693 152.621Z" fill="#E0E0E0"/>
<path d="M371.242 187.55C368.038 188.173 365.778 188.762 363.927 189.57C362.234 190.31 362.987 192.387 364.824 192.185C367.427 191.899 369.704 191.403 372.729 190.574C372.908 190.526 373.083 190.449 373.241 190.353C374.863 189.361 376.211 188.497 377.365 187.711C379.179 186.476 377.79 184.471 375.813 185.423L371.735 187.387C371.579 187.462 371.412 187.517 371.242 187.55Z" fill="#E0E0E0"/>
<path d="M369.643 105.763C366.153 108.297 363.872 108.973 359.798 108.999C359.601 109 359.404 109.029 359.216 109.087C357.353 109.661 356.253 107.823 357.832 106.681C358.296 106.345 358.808 105.982 359.376 105.586C359.458 105.529 359.546 105.477 359.635 105.433C363.035 103.757 364.981 102.982 368.107 102.109C368.366 102.036 368.639 102.016 368.904 102.062C370.981 102.428 371.146 103.239 370.205 105.107C370.074 105.368 369.879 105.591 369.643 105.763Z" fill="#E0E0E0"/>
<path d="M253.745 218.54C247.352 219.555 243.426 221.695 239.406 226.337C238.031 227.923 235.182 226.852 235.433 224.768C236.58 215.254 237.525 210.495 239.5 206.5C243.054 198.052 246.248 194.748 255 192.5C259.172 191.786 262.279 199.172 274.828 216.266C274.94 216.419 275.078 216.56 275.228 216.675C281.448 221.414 285.611 223.661 294.204 226.406C294.398 226.468 294.589 226.562 294.756 226.68C305.003 233.886 310.101 237.92 311.361 240.747C311.859 241.864 310.544 242.441 309.487 241.826C284.415 227.226 270.813 220.284 254.255 218.527C254.086 218.509 253.912 218.513 253.745 218.54Z" stroke="#E0E0E0"/>
<path d="M300.693 152.621L295.272 146.898C294.238 145.807 292.414 146.204 291.883 147.61C289.909 152.839 287.957 156.527 285.079 160.67C283.982 162.25 285.433 164.378 287.247 163.74C292.64 161.845 296.366 159.598 300.668 155.357C301.426 154.61 301.426 153.394 300.693 152.621Z" stroke="#E0E0E0"/>
<path d="M371.242 187.55C368.038 188.173 365.778 188.762 363.927 189.57C362.234 190.31 362.987 192.387 364.824 192.185C367.427 191.899 369.704 191.403 372.729 190.574C372.908 190.526 373.083 190.449 373.241 190.353C374.863 189.361 376.211 188.497 377.365 187.711C379.179 186.476 377.79 184.471 375.813 185.423L371.735 187.387C371.579 187.462 371.412 187.517 371.242 187.55Z" stroke="#E0E0E0"/>
<path d="M369.643 105.763C366.153 108.297 363.872 108.973 359.798 108.999C359.601 109 359.404 109.029 359.216 109.087C357.353 109.661 356.253 107.823 357.832 106.681C358.296 106.345 358.808 105.982 359.376 105.586C359.458 105.529 359.546 105.477 359.635 105.433C363.035 103.757 364.981 102.982 368.107 102.109C368.366 102.036 368.639 102.016 368.904 102.062C370.981 102.428 371.146 103.239 370.205 105.107C370.074 105.368 369.879 105.591 369.643 105.763Z" stroke="#E0E0E0"/>
<path d="M421.889 439.875C420.729 433.506 418.501 429.629 413.77 425.715C412.153 424.377 413.159 421.504 415.248 421.708C424.786 422.64 429.565 423.477 433.604 425.361C442.13 428.723 445.505 431.841 447.95 440.541C448.759 444.696 441.445 447.968 424.639 460.901C424.489 461.016 424.351 461.157 424.239 461.31C419.642 467.635 417.49 471.848 414.94 480.501C414.882 480.696 414.792 480.889 414.678 481.059C407.706 491.466 403.788 496.654 400.99 497.977C399.884 498.5 399.278 497.199 399.869 496.128C413.899 470.733 420.532 456.978 421.914 440.384C421.928 440.215 421.919 440.041 421.889 439.875Z" fill="#FEFEFE"/>
<path d="M488.852 485.321L494.452 479.771C495.519 478.713 495.081 476.898 493.663 476.4C488.391 474.544 484.659 472.676 480.452 469.892C478.848 468.831 476.754 470.33 477.432 472.129C479.448 477.478 481.78 481.153 486.116 485.357C486.881 486.098 488.096 486.07 488.852 485.321Z" fill="#FEFEFE"/>
<path d="M455.527 556.641C454.832 553.451 454.192 551.206 453.342 549.374C452.564 547.697 450.505 548.497 450.748 550.329C451.093 552.925 451.64 555.19 452.537 558.196C452.59 558.374 452.67 558.547 452.77 558.703C453.798 560.302 454.693 561.631 455.504 562.766C456.781 564.552 458.753 563.118 457.756 561.163L455.701 557.13C455.623 556.976 455.564 556.81 455.527 556.641Z" fill="#FEFEFE"/>
<path d="M537.257 553.193C534.645 549.762 533.918 547.497 533.799 543.425C533.793 543.228 533.76 543.031 533.698 542.844C533.083 540.995 534.894 539.854 536.072 541.406C536.419 541.863 536.793 542.366 537.202 542.925C537.26 543.005 537.314 543.092 537.36 543.18C539.113 546.542 539.932 548.47 540.876 551.575C540.954 551.832 540.98 552.105 540.94 552.371C540.622 554.456 539.814 554.64 537.925 553.741C537.662 553.616 537.434 553.426 537.257 553.193Z" fill="#FEFEFE"/>
<path d="M421.889 439.875C420.729 433.506 418.501 429.629 413.77 425.715C412.153 424.377 413.159 421.504 415.248 421.708C424.786 422.64 429.565 423.477 433.604 425.361C442.13 428.723 445.505 431.841 447.95 440.541C448.759 444.696 441.445 447.968 424.639 460.901C424.489 461.016 424.351 461.157 424.239 461.31C419.642 467.635 417.49 471.848 414.94 480.501C414.882 480.696 414.792 480.889 414.678 481.059C407.706 491.466 403.788 496.654 400.99 497.977C399.884 498.5 399.278 497.199 399.869 496.128C413.899 470.733 420.532 456.978 421.914 440.384C421.928 440.215 421.919 440.041 421.889 439.875Z" stroke="#FEFEFE"/>
<path d="M488.852 485.321L494.452 479.771C495.519 478.713 495.081 476.898 493.663 476.4C488.391 474.544 484.659 472.676 480.452 469.892C478.848 468.831 476.754 470.33 477.432 472.129C479.448 477.478 481.78 481.153 486.116 485.357C486.881 486.098 488.096 486.07 488.852 485.321Z" stroke="#FEFEFE"/>
<path d="M455.527 556.641C454.832 553.451 454.192 551.206 453.342 549.374C452.564 547.697 450.505 548.497 450.748 550.329C451.093 552.925 451.64 555.19 452.537 558.196C452.59 558.374 452.67 558.547 452.77 558.703C453.798 560.302 454.693 561.631 455.504 562.766C456.781 564.552 458.753 563.118 457.756 561.163L455.701 557.13C455.623 556.976 455.564 556.81 455.527 556.641Z" stroke="#FEFEFE"/>
<path d="M537.257 553.193C534.645 549.762 533.918 547.497 533.799 543.425C533.793 543.228 533.76 543.031 533.698 542.844C533.083 540.995 534.894 539.854 536.072 541.406C536.419 541.863 536.793 542.366 537.202 542.925C537.26 543.005 537.314 543.092 537.36 543.18C539.113 546.542 539.932 548.47 540.876 551.575C540.954 551.832 540.98 552.105 540.94 552.371C540.622 554.456 539.814 554.64 537.925 553.741C537.662 553.616 537.434 553.426 537.257 553.193Z" stroke="#FEFEFE"/>
<defs>
<filter id="filter0_f_1_14" x="104" y="0" width="660" height="660" filterUnits="userSpaceOnUse" color-interpolation-filters="sRGB">
<feFlood flood-opacity="0" result="BackgroundImageFix"/>
<feBlend mode="normal" in="SourceGraphic" in2="BackgroundImageFix" result="shape"/>
<feGaussianBlur stdDeviation="25" result="effect1_foregroundBlur_1_14"/>
</filter>
</defs>
</svg>
