<svg width="1357" height="370" viewBox="0 0 1357 370" fill="none" xmlns="http://www.w3.org/2000/svg">
<path d="M497.03 181.154L497.409 180.827L497.03 181.154C508.706 194.716 518.611 204.308 529.587 211.934C540.564 219.561 552.591 225.208 568.491 230.902C569.64 231.314 570.929 230.822 571.525 229.764C580.484 213.868 588.463 202.302 598.915 193.273C609.363 184.248 622.316 177.73 641.267 171.994C642.36 171.663 643.111 170.617 643.069 169.474C641.948 138.506 644.365 113.92 652.974 90.328C661.583 66.7329 676.399 44.0919 700.136 17.0362C701.142 15.8894 700.861 14.4693 700.074 13.6067C699.285 12.7418 697.901 12.3439 696.69 13.2872C669.727 34.284 645.941 55.0507 621.11 76.7302C615.966 81.221 610.778 85.7509 605.507 90.3302C574.788 117.018 541.258 145.394 497.462 177.492C496.293 178.348 496.078 180.047 497.03 181.154Z" fill="url(#paint0_linear_1_285)" stroke="#6A50AF"/>
<path d="M916.04 127.976C834.103 88.7813 787.741 61.2332 705.796 5.09124C704.915 4.48756 703.709 4.65539 703.067 5.5092C695.67 15.3503 654.373 70.6843 643.964 93.1419C633.631 115.437 634.1 158.842 634.289 167.067C634.308 167.896 633.814 168.647 633.052 168.975C605.162 180.955 590.01 192.487 567.123 227.335C566.617 228.104 565.638 228.447 564.772 228.135C536.091 217.782 517.606 201.477 485.202 169.871C484.398 169.087 483.101 169.094 482.318 169.898C475.717 176.669 447.361 204.569 428.306 204.569C406.669 204.569 376.873 161.279 323.858 128.305C323.616 128.155 323.342 128.043 323.059 128.069C317.482 128.576 306.062 151.348 266.863 168.431C228.27 185.249 171.707 242.4 167.157 247.034C166.942 247.254 166.706 247.389 166.416 247.492C76.6729 279.157 41.4017 306.318 2.03516 365.897C1.15997 367.221 2.10115 369 3.68872 369H1353.56C1354.82 369 1355.77 367.83 1355.51 366.596C1347.2 327.113 1332.72 312.124 1294.56 296.12C1212.4 272.938 1172.87 254.67 1124.32 204.818C1124.16 204.655 1123.97 204.516 1123.77 204.415C1042.82 164.286 997.323 146.064 916.475 128.126C916.327 128.093 916.177 128.042 916.04 127.976Z" fill="#121221" stroke="#121221"/>
<path d="M779.992 116.632C751.432 92.7684 740.175 84.794 724.148 74.7299C723.348 74.2272 722.132 74.4182 722.304 75.3478C722.74 77.7097 727.733 82.225 743.251 93.7442C802.681 137.855 827.558 160.237 876.964 201.558L779.992 116.632Z" fill="#473676"/>
<path d="M697.475 116.632C688.043 96.4837 684.909 77.9762 675.568 79.8068C675.321 79.855 675.082 79.966 674.882 80.1175C671.082 82.995 673.169 84.8646 675.19 93.7442C676.286 98.5627 681.213 103.983 697.475 128.076C709.073 145.258 712.4 148.961 713.354 149.672C713.599 149.854 713.668 149.616 713.533 149.342L697.475 116.632Z" fill="#473676"/>
<path d="M822.153 284.074C782.464 300.463 763.733 312.908 731.807 336.475C753.19 316.679 766.39 307.447 792.038 294.314C815.648 281.319 828.98 275.203 853.474 273.233C879.838 273.724 892.488 275.777 913.102 281.063C867.425 274.721 846.499 274.631 822.153 284.074Z" fill="#473676"/>
<path d="M779.992 116.632C751.432 92.7684 740.175 84.794 724.148 74.7299C723.348 74.2272 722.132 74.4182 722.304 75.3478C722.74 77.7097 727.733 82.225 743.251 93.7442C802.681 137.855 827.558 160.237 876.964 201.558L779.992 116.632Z" stroke="#473676"/>
<path d="M697.475 116.632C688.043 96.4837 684.909 77.9762 675.568 79.8068C675.321 79.855 675.082 79.966 674.882 80.1175C671.082 82.995 673.169 84.8646 675.19 93.7442C676.286 98.5627 681.213 103.983 697.475 128.076C709.073 145.258 712.4 148.961 713.354 149.672C713.599 149.854 713.668 149.616 713.533 149.342L697.475 116.632Z" stroke="#473676"/>
<path d="M822.153 284.074C782.464 300.463 763.733 312.908 731.807 336.475C753.19 316.679 766.39 307.447 792.038 294.314C815.648 281.319 828.98 275.203 853.474 273.233C879.838 273.724 892.488 275.777 913.102 281.063C867.425 274.721 846.499 274.631 822.153 284.074Z" stroke="#473676"/>
<path d="M545.693 273.835C517.855 263.751 503.818 258.925 478.837 250.345C508.267 262.457 517.987 269.016 545.693 278.051C573.399 287.086 590.029 289.892 616.766 300.939C634.226 306.003 649.29 315.997 662.541 323.224C675.792 330.452 689.28 338.837 710.124 354.545C678.6 327.261 659.32 313.975 619.777 296.723C590.698 288.264 574.424 283.423 545.693 273.835Z" fill="#473676" stroke="#473676"/>
<path d="M1175.11 268.414C1170.38 267.202 1164.08 266.008 1155.98 265.52C1153.55 265.374 1153.16 262.1 1155.6 261.982C1161.96 261.676 1168.64 262.198 1177.27 263.556C1177.43 263.582 1177.6 263.631 1177.75 263.697C1189.24 268.66 1194.94 272.347 1198.71 276.718C1200.1 278.329 1198.11 280.083 1196.38 278.85C1186.8 272.038 1182.03 270.188 1175.11 268.414Z" fill="#473676"/>
<path d="M353.556 236.492C342.639 234.412 312.03 228.249 283.282 221.217C281.039 220.668 280.3 222.669 282.471 223.458C306.557 232.207 347.604 240.424 353.556 241.913C359.072 243.292 391.994 248.936 419.83 250.687C422.274 250.84 422.4 248.485 419.973 248.154C388.175 243.828 363.817 238.446 353.556 236.492Z" fill="#473676"/>
<path d="M1175.11 268.414C1170.38 267.202 1164.08 266.008 1155.98 265.52C1153.55 265.374 1153.16 262.1 1155.6 261.982C1161.96 261.676 1168.64 262.198 1177.27 263.556C1177.43 263.582 1177.6 263.631 1177.75 263.697C1189.24 268.66 1194.94 272.347 1198.71 276.718C1200.1 278.329 1198.11 280.083 1196.38 278.85C1186.8 272.038 1182.03 270.188 1175.11 268.414Z" stroke="#473676"/>
<path d="M353.556 236.492C342.639 234.412 312.03 228.249 283.282 221.217C281.039 220.668 280.3 222.669 282.471 223.458C306.557 232.207 347.604 240.424 353.556 241.913C359.072 243.292 391.994 248.936 419.83 250.687C422.274 250.84 422.4 248.485 419.973 248.154C388.175 243.828 363.817 238.446 353.556 236.492Z" stroke="#473676"/>
<defs>
<linearGradient id="paint0_linear_1_285" x1="552.638" y1="-8.11621" x2="672.674" y2="195.005" gradientUnits="userSpaceOnUse">
<stop stop-color="#6A50AF"/>
<stop offset="0.809" stop-color="#2C2149"/>
</linearGradient>
</defs>
</svg>
