<svg width="211" height="242" viewBox="0 0 211 242" fill="none" xmlns="http://www.w3.org/2000/svg">
<path d="M175.195 34.2773L176.953 34.5703L186.328 39.2578L191.895 42.1875L198.926 45.7031L210.059 51.5625V57.7148L209.473 88.7695L209.18 89.3555L199.512 93.75L191.016 97.8516L182.812 101.66L156.152 114.258L149.121 117.48L139.746 121.875L133.008 125.098L123.34 129.492L118.652 131.836L111.035 135.352L101.66 139.746L93.457 143.555L87.0117 146.484L82.3242 148.828L74.1211 152.637L64.1602 157.324L55.957 161.133L45.9961 165.82L37.207 169.922L35.4492 170.801L36.6211 171.68L45.4102 176.074L50.9766 179.004L56.543 181.641L62.1094 184.57L69.1406 188.086L70.0195 188.672L69.7266 189.551L62.1094 192.773L53.6133 196.582L35.4492 204.492L33.3984 204.785L28.7109 202.441L18.457 197.168L0.878906 188.379L0 187.793V179.004L0.585938 150.293L2.05078 149.414L10.5469 145.312L20.2148 140.918L24.9023 138.574L31.9336 135.352L39.8438 131.543L45.7031 128.906L50.3906 126.562L56.25 123.926L64.7461 119.824L70.0195 117.48L77.9297 113.672L83.2031 111.328L91.1133 107.52L108.105 99.6094L114.844 96.3867L122.461 92.8711L131.836 88.4766L138.574 85.2539L146.191 81.7383L152.93 78.5156L158.789 75.8789L166.113 72.3633L171.973 69.7266L174.023 68.5547H174.609L173.73 67.6758L166.699 64.1602L161.719 61.5234L154.98 58.3008L150 55.6641L143.262 52.4414L140.039 50.6836L140.332 49.8047L147.656 46.582L156.152 42.7734L162.305 40.1367L169.922 36.6211L174.902 34.5703L175.195 34.2773Z" fill="#FEFFFE"/>
<path d="M209.473 101.953L210.059 102.246V188.965L208.887 189.844L199.805 193.652L190.43 197.754L181.641 201.562L174.023 204.785L172.266 204.492L133.008 184.863L125.098 180.762L118.359 177.539L112.793 174.609L106.055 171.387L100.488 168.457L93.1641 164.941L92.5781 164.062L105.176 158.496L113.672 154.688L118.945 152.344L124.805 149.707L128.32 148.242L129.785 148.535L135.352 151.172L140.918 154.102L145.605 156.445L157.031 162.305L169.336 168.457L173.145 170.508L173.438 118.359L175.781 116.895L187.207 111.914L202.441 105.176L209.473 101.953Z" fill="#FEFFFE"/>
<path d="M35.7422 34.2773L37.5 34.5703L48.0469 39.8438L53.6133 42.7734L68.2617 50.0977L80.2734 56.25L94.9219 63.5742L100.488 66.5039L108.691 70.6055L114.258 73.5352L117.188 75V75.5859L109.277 79.1016L101.66 82.3242L92.8711 86.1328L87.5977 88.4766L81.4453 91.1133L79.6875 90.5273L73.2422 87.3047L68.2617 84.668L62.6953 82.0312L57.1289 79.1016L37.793 69.4336L36.9141 68.8477L36.6211 70.3125V119.238L36.3281 121.289L27.832 125.098L19.043 128.906L12.0117 132.129L4.6875 135.352L0.292969 137.402L0 137.109V50.0977L2.92969 48.6328L23.1445 39.8438L35.4492 34.5703L35.7422 34.2773Z" fill="#FEFFFE"/>
<path d="M104.59 0L106.055 0.292969L114.551 4.6875L119.824 7.61719L129.199 12.5977L135.645 16.1133L143.848 20.5078L147.656 22.5586L147.949 23.4375L135.059 31.9336L130.078 35.4492L123.926 39.5508L119.238 42.7734L118.359 43.3594L116.602 43.0664L109.863 39.2578L105.469 36.9141L104.004 37.207L97.2656 41.0156L92.5781 43.3594L91.4062 43.0664L88.1836 41.0156L83.2031 37.5L62.1094 23.4375L61.8164 22.8516L71.1914 17.8711L77.6367 14.3555L85.8398 9.96094L92.2852 6.44531L103.418 0.585938L104.59 0Z" fill="#FEFFFE"/>
<path d="M91.9922 197.754L94.043 198.633L104.004 203.906L105.469 204.199L111.621 200.977L117.48 197.754L118.945 198.34L125.977 203.027L131.836 207.129L144.141 215.332L147.949 217.969V218.555L141.211 222.07L134.18 225.879L127.441 229.395L120.996 232.91L112.793 237.305L106.055 240.82L104.59 241.406L99.3164 238.477L82.3242 229.395L75.8789 225.879L69.1406 222.363L63.5742 219.434L62.1094 218.555L62.4023 217.676L73.8281 210.059L80.2734 205.664L88.4766 200.098L91.4062 198.047L91.9922 197.754Z" fill="#FEFFFE"/>
</svg>
