<svg width="426" height="437" viewBox="0 0 426 437" fill="none" xmlns="http://www.w3.org/2000/svg">
<path d="M0 0H126.75L129.375 3.375L135.375 12.375L139.125 17.625L144.75 25.875L148.875 31.875L153.75 39L157.875 45L162.75 52.125L166.875 58.125L172.125 65.625L175.125 70.125L179.25 76.125L184.5 83.625L188.25 89.25L194.25 97.875L197.25 102.375L202.5 109.875L205.5 114.375L213.75 126.375L219.75 135L225.375 143.25L230.25 150.375L234.375 156.375L236.625 159.75L238.5 157.875L243 153L246.375 148.875L250.125 144.75L253.125 141L256.125 137.625L258.75 134.625L263.25 129.375L265.875 126.375L270 121.5L273.375 117.75L276.375 114L280.125 109.875L283.125 106.125L286.5 102.375L289.875 98.25L293.625 94.125L297 90L301.5 84.75L304.875 81L308.25 76.875L311.625 73.125L314.25 69.75H315L315.75 68.25L320.625 62.625L325.125 57.375L328.5 53.625L331.5 49.875L335.25 45.75L338.25 42L341.625 38.25L345 34.125L348.375 30.375L351 27.375L355.125 22.5L357.75 19.5L361.875 14.625L365.25 10.875L368.25 7.125L372 3L374.25 0H412.125L411.375 1.5L408 5.25L405.375 8.25L401.25 13.125L398.625 16.125L394.5 21L391.125 24.75L388.125 28.5L384.375 32.625L381.375 36.375L377.625 40.5L374.25 44.625L370.875 48.375L367.5 52.5L364.125 56.25L361.5 59.25L357.375 64.125L354.75 67.125L350.625 72L346.125 77.25L342.75 81L339.75 84.75L335.625 89.25L333 92.625L329.25 96.75L325.875 100.875L322.5 104.625L319.125 108.75L315.75 112.5L312.375 116.625L309 120.375L306.375 123.375L302.25 128.25L299.625 131.25L295.5 136.125L290.625 141.75L288 144.75L283.875 149.625L279.375 154.875L276.75 157.875L272.625 162.75L270 165.75L265.5 171L262.875 174L258.75 178.875L255.375 182.625L254.25 184.125L254.625 186L257.625 190.125L260.625 194.625L264.75 200.625L269.625 207.75L273.75 213.75L277.125 218.625L283.125 227.25L289.5 236.625L293.625 242.625L298.5 249.75L306.75 261.75L311.625 268.875L315.75 274.875L320.625 282L337.125 306L342 313.125L345.375 318L353.625 330L358.5 337.125L362.625 343.125L368.25 351.375L373.5 358.875L376.5 363.375L384.75 375.375L390.75 384L393.75 388.5L399 396L405 405L408 409.125L413.625 417.375L417.75 423.375L422.625 430.5L426 435.375V436.125H299.25L295.875 431.625L289.5 422.25L277.125 404.25L272.25 397.125L268.125 391.125L263.25 384L250.875 366L246 358.875L241.875 352.875L238.5 348L228.75 333.75L224.625 327.75L218.625 319.125L212.25 309.75L204 297.75L199.125 290.625L190.875 278.625L186 271.5L183.375 267.375L182.25 267L181.5 268.875L177 273.75L174 277.5L170.625 281.25L167.25 285.375L163.5 289.5L160.125 293.625L156.75 297.375L153.375 301.5L150.375 304.875L147 309L143.625 312.75L141 315.75L136.875 320.625L134.25 323.625L125.25 334.125L122.625 337.125L118.5 342L115.875 345L111.75 349.875L108.375 353.625L105.375 357.375L101.625 361.5L98.25 365.625L94.875 369.375L91.5 373.5L88.125 377.25L84.75 381.375L81.75 384.75L79.125 387.75L70.125 398.25L67.5 401.25L63.375 406.125L60.75 409.125L56.625 414L53.25 417.75L50.25 421.5L46.5 425.625L43.125 429.75L39.75 433.5L38.25 435.75L37.5 436.125H0L0.75 434.25L3.75 431.25L7.125 427.125L10.5 423.375L13.875 419.25L17.25 415.5L20.625 411.375L23.625 408L26.25 405L30.75 399.75L33.375 396.75L37.5 391.875L40.875 388.125L43.875 384.375L47.25 380.625L50.625 376.5L54 372.75L57.375 368.625L60.75 364.875L63.375 361.875L67.5 357L70.875 353.25L73.875 349.5L77.625 345.375L80.625 341.625L84.375 337.5L87.75 333.375L90.75 330L93.375 327L97.5 322.125L100.125 319.125L104.25 314.25L107.625 310.5L110.625 306.75L114.375 302.625L117.75 298.5L120.75 295.125L124.125 291L127.875 286.875L131.25 282.75L134.625 279L137.25 276L140.625 271.875L144.75 267.375L147.75 263.625L151.125 259.875L154.125 256.125L157.875 252L161.25 247.875L164.25 244.5L165.75 242.625L165 240.75L162 236.625L152.25 222.375L144 210.375L139.125 203.25L133.125 194.625L126 184.125L120.75 176.625L117.75 172.125L111.75 163.5L105.75 154.5L102.75 150.375L97.125 142.125L92.25 135L88.125 129L83.25 121.875L79.125 115.875L73.875 108.375L70.125 102.75L64.875 95.25L58.5 85.875L46.125 67.875L36.375 53.625L30.375 45L24.375 36L21.375 31.875L14.25 21.375L9 13.875L2.625 4.5L0 0.75V0Z" fill="#FEFEFE"/>
<path d="M51 28.5H108.75L112.125 33L117 40.125L120.75 45.375L126.75 54L137.25 69L143.25 77.625L153.75 92.625L159.75 101.25L165 108.75L169.5 115.125L173.625 121.125L178.875 128.625L183.375 135L187.5 141L192 147.375L197.25 154.875L203.25 163.5L213.75 178.5L219.75 187.125L251.25 232.125L256.125 239.25L265.125 252L271.125 260.625L281.625 275.625L287.625 284.25L308.625 314.25L314.625 322.875L325.125 337.875L330 345L334.875 351.75L339.75 358.875L344.25 365.25L360 387.75L364.875 394.875L369.75 401.625L373.875 407.625L374.25 408.75H316.875L313.5 404.25L297.75 381.75L291.75 373.125L281.25 358.125L275.25 349.5L270.75 343.125L265.5 335.625L261.375 329.625L256.875 323.25L252.75 317.25L248.25 310.875L237.75 295.875L232.875 288.75L228 282L223.125 274.875L212.625 259.875L208.125 253.5L204 247.5L198.75 240L194.25 233.625L189 226.125L184.875 220.125L180.375 213.75L175.125 206.25L171 200.25L166.5 193.875L161.25 186.375L157.125 180.375L152.25 173.625L147.375 166.5L141.375 157.875L136.875 151.5L130.875 142.875L115.125 120.375L109.125 111.75L98.625 96.75L92.625 88.125L87.375 80.625L82.875 74.25L78.75 68.25L74.25 61.875L69 54.375L64.875 48.375L60.375 42L55.125 34.5L51.375 29.25L51 28.5Z" fill="#020202"/>
</svg>
