<svg width="108" height="194" viewBox="0 0 108 194" fill="none" xmlns="http://www.w3.org/2000/svg">
<path d="M28.5 11L28 9.5L28.5 9L30.5 6L34 3L38.5 2L42 1.5L44 3.5L45 9L43.5 14L44.5 18.5L48 22C48.5 23.5 49.5 26.6 49.5 27C49.5 27.4 48.1667 28.8333 47.5 29.5L45 28L40 27.5L38 24.5V21.5V20.5V19L37.875 18.5L35.5 19.5L33 20L30.5 17.5L28.5 11Z" fill="#020202"/>
<path d="M23 40.5L23.5 36L28 36.5H31L32 40L33 44C33.5 46.1667 34.5 50.6 34.5 51C34.5 51.5 35 55 35 55.5C35 55.9 35.6667 57 36 57.5L38 61.5C38.8333 63.5 40.6 67.7 41 68.5C41.4 69.3 43.5 72.5 44.5 74L48 77.5C48.4 77.9 50.5 79.3333 51.5 80L51 81.5L49 83.5C48.6 83.9 47.5 84.6667 47 85H45.75L47 87.5L48 89V91V93C47.3333 94.6667 46 98.2 46 99V102.5V104.5C46 105.112 46 106.098 46.2289 107C46.2956 107.199 46.3706 107.422 46.4509 107.663C46.588 107.979 46.7668 108.267 47 108.5C47.8 109.3 48 111.5 48 112.5L49 118C49.6667 120.5 51 125.7 51 126.5C51 127.5 51.5 132.5 51.5 133C51.5 133.4 52.1667 136.833 52.5 138.5C52.8333 141 53.5 146.1 53.5 146.5V152V156.5C53.3333 157.333 53.1 159.2 53.5 160C54 161 54 164 54 165C54 165.8 55 168 55.5 169V174.5L55 176H52.5H46C45 176 43 175 42 175H38C36.5 175 37 174.5 36 174C35 173.5 34.5 173 33.5 173C32.7 173 32.5 172 32.5 171.5L34.5 170.5L37 170H39.5L42 169L44.5 166L46 161L45.5 155.5L44.5 149.5L42 142L39.5 133L38 122.5L36 117L33.5 108.5L31.5 100.5L29.5 89V81.5L29 75.5L29.5 73L31.5 69.5C31.1 69.1 30 67.6667 29.5 67L28 64L27 61L25.5 57L24.5 54.5L23.5 49.5L23 46V40.5Z" fill="#020202"/>
<path d="M57 87L58 83.5C56.6667 82.3333 53.7 80 52.5 80C51 80 47.5 80.5 46 81.5C44.5 82.5 43.5 86 43.5 86.5C43.5 87 44 96.5 44 97.5C44 98.3 45.3333 102.833 46 105L47.5 108L50 114L52 118L54.5 123C55.3333 125.167 57 129.6 57 130C57 130.5 59.5 136 59.5 136.5C59.5 136.9 60.1667 140.333 60.5 142C61 143.667 62.1 147.1 62.5 147.5C62.9 147.9 63.3333 151 63.5 152.5L64 155V158C64 159 63 163 62.5 163.5C62 164 62 166 64 168.5C65.5 169 67 168.5 67.5 168.5C67.9 168.5 69.3333 167.833 70 167.5L72 165.5L71 163L70 162L69 160.5V157V153V149V144.5L67.5 138V134.5L65 124.5L64 120.5C63.5 118.667 62.4 114.8 62 114C61.5 113 60 109.5 59.5 109C59 108.5 58.5 106 58.5 105C58.5 104 58 99.5 57 97.5C56 95.5 57 92.5 57 92V87Z" fill="#020202"/>
<path d="M62.5 50.5L62 48.5L56.5 57C55.1667 59.6667 52.4 65.3 52 66.5C51.5 68 46 81.5 45.5 83C45.1 84.2 44.3333 86.8333 44 88C44.8333 88.5 46.6 89.5 47 89.5H51H54.5L55 88V86H56L58.5 82.5V79.5L59.5 72L60.5 69.5L62.5 61L63.5 57L63 53.5L62.5 50.5Z" fill="#020202"/>
<path d="M38.5 32.5L31 36L32 43V52.5C32 53 37.5 68.5 38 69C38.5 69.5 46.5 78 47 78.5C47.4 78.9 49.8333 80 51 80.5C51.3333 79.6667 52.1 77.8 52.5 77C52.9 76.2 53.6667 74 54 73C54.5 71.8333 55.5 69.3 55.5 68.5C55.5 67.7 56.5 66.1667 57 65.5L57.5 64L58 62L59.5 59.5L60.5 57.5L61.5 54.5L62.5 51.5L62 49V44V41V39L61.5 36L60 32.5L56.5 29C56.1 28.6 54.3333 27.8333 53.5 27.5L48.5 29L43 31L38.5 32.5Z" fill="#020202"/>
<path d="M24 41L24.5 37L28 36.5H31L32 40L33 44C33.5 46.1667 34.5 50.6 34.5 51C34.5 51.5 35 55 35 55.5C35 55.9 35.6667 57 36 57.5L38 61.5C38.8333 63.5 40.6 67.7 41 68.5C41.4 69.3 43.5 72.5 44.5 74L48 77.5C48.4 77.9 50.5 79.3333 51.5 80L51 81.5L49 83.5C48.6 83.9 47.5 84.6667 47 85H45.75L47 87.5L48 89V93C47.3333 94.6667 46 98.2 46 99V104.5C46 105.5 46 107.5 47 108.5C47.8 109.3 48 111.5 48 112.5L49 118C49.6667 120.5 51 125.7 51 126.5C51 127.5 51.5 132.5 51.5 133C51.5 133.4 52.1667 136.833 52.5 138.5C52.8333 141 53.5 146.1 53.5 146.5V152V156.5C53.3333 157.333 53.1 159.2 53.5 160C54 161 54 164 54 165C54 165.8 55 168 55.5 169V174.5L55 176H52.5H46C45 176 43 175 42 175H38C36.5 175 37 174.5 36 174C35 173.5 34.5 173 33.5 173C32.7 173 32.5 172 32.5 171.5L34.5 170.5L37 170H39.5L42 169L44.5 166L46 161L45.5 155.5L44.5 149.5L42 142L39.5 133L38 122.5L36 117L33.5 108.5L31.5 100.5L29.5 89V81.5L29 75.5L29.5 73L31.5 71L32.7616 71.4588C32.1961 70.5016 31.6915 69.6915 31.5 69.5C31.1 69.1 30 67.6667 29.5 67L28 64L26 60.5L25.5 57L24.5 53.5L24 49.5V46V41Z" fill="#020202"/>
<path d="M85.3029 151.776H99.2824L102.135 152.347L104.703 153.488L106.415 154.629L107.556 156.341V158.909L107.271 159.479H106.7V160.05L104.418 162.047L100.994 165.471L96.7147 168.038L91.2941 170.606L89.0118 172.032L84.1618 174.315L79.8824 176.312L74.1765 178.594L67.3294 181.447L61.0529 183.729L57.6294 185.156L51.9235 187.153L44.2206 189.15L41.9382 190.006L37.3735 191.147L28.5294 192.859L24.8206 193.429L20.2559 194H7.70294L4.27941 193.144L2.56765 192.288L2.28235 191.432L1.14118 190.862L0 188.865V184.3L1.42647 180.876L3.70882 178.024L5.70588 176.597L8.84412 174.885L9.98529 173.744L19.1147 169.179L22.2529 167.753L26.8176 166.041L30.5265 164.615L33.95 163.188L39.9412 161.191L45.6471 159.479H46.2176L46.5029 162.618L45.3618 166.612L41.9382 168.609L41.0824 169.75L40.5118 170.891L38.2294 172.318L35.0912 172.888H34.2353L33.3794 172.318L33.6647 171.462L36.2324 171.176L34.8059 170.891L32.8088 171.747L33.3794 172.888L34.5206 173.744L37.0882 174.6L41.6529 175.171H48.2147L50.2118 175.741H55.0618L55.3471 174.885V171.462L54.4912 166.897L53.6353 162.618L53.0647 158.624L53.35 157.197L58.7706 155.771L61.9088 154.915H63.6206L63.05 163.759L62.7647 166.041L63.05 166.612V168.609L65.0471 169.179H67.0441L69.3265 168.324L70.1824 167.182L71.0382 165.471H71.6088V163.759L70.4676 162.047L69.3265 160.906L69.0412 156.056L69.3265 153.203L72.1794 152.632L77.6 152.062L85.3029 151.776Z" fill="#FDFDFD"/>
<path d="M34.5206 0H38.5147L41.3677 0.570588L43.65 2.28235V2.85294H44.2206L45.3618 7.41765V10.2706L44.7912 13.1235L44.2206 18.2588H44.7912L45.0765 18.8294H45.6471V19.4H46.2177V19.9706L47.3588 20.5412L49.9265 22.5382L55.6324 25.1059L58.4853 26.2471L60.7677 28.2441L61.6235 30.8118L62.4794 33.6647V37.6588L61.6235 37.9441L61.053 39.3706L59.9118 41.6529H60.7677V42.2235H61.3383L61.6235 41.6529H62.1941L62.7647 46.5029V51.3529H62.1941L61.6235 49.9265L60.4824 51.3529L59.3412 52.4941L58.7706 53.6353L58.4853 58.4853L59.9118 58.7706L59.0559 60.7676L57.9147 63.05L56.7735 63.6206L55.6324 63.3353L54.7765 66.1882L53.6353 69.8971L52.4941 72.75L51.9235 73.0353L52.2088 70.1824L52.7794 66.4735L53.35 62.4794V58.7706L56.203 53.6353L56.7735 53.35V51.3529L55.0618 44.5059L56.4883 41.0824V38.8L55.3471 41.3676L54.2059 43.0794L53.6353 41.9382L52.7794 39.0853L52.4941 37.6588L52.7794 35.3765L52.4941 32.5235L51.9235 31.3824V29.6706L52.7794 29.1H53.6353V28.5294L52.2088 29.1L51.0677 30.2412V32.8088L51.9235 35.6618L51.353 39.0853L50.4971 41.0824H49.6412V41.6529H50.2118L51.0677 44.5059L51.353 47.9294L50.4971 49.6412L49.0706 48.2147L48.7853 45.3618L49.0706 42.5088L48.7853 41.6529V33.6647L47.9294 30.5265L47.3588 30.2412L48.2147 32.2382V36.2324L47.6441 38.8L47.0735 40.2265L45.6471 42.2235L43.9353 45.3618L41.9383 48.7853L41.0824 49.0706L40.5118 49.9265L39.0853 49.6412V47.6441L40.5118 47.3588L41.3677 45.6471L42.5088 44.2206L43.3647 41.9382L44.5059 41.3676L43.3647 40.7971V41.3676L42.2235 41.6529L41.653 43.3647L37.9441 45.3618H37.3735V43.3647L35.9471 40.5118L37.3735 39.3706V37.9441L32.5235 37.3735L31.3824 37.6588V39.3706L32.2383 39.0853L34.5206 40.5118L33.95 41.0824L34.2353 43.3647L35.6618 48.7853L36.2324 51.6382L36.803 56.2029L36.2324 57.3441L34.2353 56.2029V54.7765L33.6647 54.4912L33.95 53.6353L32.8088 53.35L31.0971 51.3529L29.9559 50.7824L28.8147 49.3559L28.5294 47.9294V43.3647H29.1V41.9382L27.103 40.2265V39.0853H25.6765L24.25 37.6588V37.0882L22.8235 36.5176L23.1088 34.2353L23.9647 31.9529L24.8206 29.3853L25.9618 28.8147V28.2441L27.9588 27.3882L30.5265 26.5324L32.5235 25.3912L33.6647 24.25H34.2353L34.8059 23.1088L36.2324 21.6824L37.9441 20.5412H39.0853V21.9676H38.5147L38.8 22.5382L41.653 23.1088L42.2235 24.25L43.3647 24.8206L44.5059 25.6765L44.2206 24.8206L42.7941 23.3941L42.2235 21.9676L41.9383 20.2559L42.7941 20.5412L43.9353 22.5382L45.6471 23.3941L45.3618 24.8206L46.2177 27.1029L46.7883 28.8147H47.3588L46.2177 24.25L46.503 22.8235L47.9294 22.5382L46.7883 21.9676L45.3618 20.8265V20.2559L44.2206 19.9706V19.4L43.65 19.1147L43.3647 15.4059H42.7941L42.5088 16.8324H42.2235V13.1235L44.2206 9.98529L43.9353 8.27353L42.7941 6.56176V5.70588L39.9412 3.42353L39.6559 3.99412L37.0883 4.56471L33.3794 5.70588H32.5235L31.953 6.84706L29.9559 9.12941L28.8147 9.41471H27.9588V6.27647L29.3853 3.70882L31.6677 1.71176L34.5206 0Z" fill="#FAFAFA"/>
<path d="M58.7706 118.682L60.1971 118.968L63.05 120.965L64.1912 122.106L64.7618 123.247L65.6177 123.818L66.7589 127.241L67.3294 131.235L67.9 132.947V137.226L67.6147 137.512V139.509H66.4736L65.3324 137.797L64.4765 136.941L64.1912 135.8L63.6206 136.656L63.05 135.229V134.088H62.4794L62.7647 135.515L62.1941 134.944L61.3383 131.806H60.7677L59.0559 128.953L57.9147 126.1L56.7736 122.106L57.3441 119.538L58.7706 118.682Z" fill="#FBFBFB"/>
<path d="M34.5206 0H38.5147L41.3676 0.570588L43.65 2.28235V2.85294H44.2206L45.3617 7.41765V10.2706L44.5059 9.9853L43.65 7.98824L42.7941 6.56177V5.70588L39.9412 3.42353L39.6559 3.99412L37.0882 4.56471L33.3794 5.70588H32.5235L31.9529 6.84706L29.9559 9.12941L28.8147 9.41471H27.9588V6.27647L29.3853 3.70882L31.6676 1.71176L34.5206 0Z" fill="#FCFCFC"/>
<path d="M43.65 82.1647H44.2206L43.9353 83.3059H44.7911V82.7353H45.647L46.7882 85.8736L47.9294 87.3L48.2147 88.1559L50.497 87.0147L51.9235 83.3059L52.4941 83.5912L52.2088 87.0147L51.6382 88.1559L53.0647 87.5853L54.4911 84.1618H54.7764V86.4441H55.347V84.7324L55.9176 84.4471L56.2029 86.1589L55.6323 87.8706L54.2058 88.1559V88.7265L52.4941 89.8677L51.3529 90.4383L51.6382 91.2941L52.7794 92.15V92.7206H51.9235L51.0676 91.5794V90.4383L49.6411 90.7236L49.9264 92.15L50.497 93.0059L50.2117 93.8618L49.0706 92.4353L48.7853 91.0089H48.2147V89.5824H49.0706V89.0118H47.0735L47.3588 92.7206H46.2176L45.3617 88.4412H44.7911V85.5883L44.5058 84.4471L43.3647 84.1618V83.5912L42.5088 83.3059V82.7353L43.65 82.1647Z" fill="#E3E3E3"/>
<path d="M28.8147 62.7647L29.3853 63.6206L30.5265 67.9L30.8118 69.0412H31.3824V71.0382L30.2412 75.6029L29.3853 79.3118V83.3059L30.2412 92.4353L31.3824 98.7118L33.6647 106.985L35.0912 111.835L34.8059 112.976L33.0941 108.412L32.8088 108.126L32.2382 104.418L30.5265 98.1412L29.6706 94.1471L28.8147 87.8706L28.5294 84.1618V71.6088L28.8147 71.0382L29.1 66.4735L28.8147 62.7647Z" fill="#FDFDFD"/>
<path d="M41.9383 13.1235H42.2236L42.5089 15.4059L43.0794 14.8353L43.65 15.4059L43.9353 19.1147L44.2206 19.9706L45.3618 20.2559L46.7883 21.6824L48.2147 22.2529L47.6441 22.8235H46.7883L46.503 24.25L47.3589 27.3882V28.8147H46.7883L45.3618 25.9618L45.0765 23.9647L45.3618 23.3941L43.9353 22.8235L42.7941 21.3971V20.5412L42.2236 20.8265L43.0794 23.3941L44.5059 24.8206V25.6765L43.3647 25.1059L41.9383 23.6794L41.653 23.1088H42.2236L41.3677 21.6824L41.653 18.2588V14.55L41.9383 13.1235Z" fill="#0D0D0D"/>
<path d="M67.9 133.518H68.1853L68.4706 143.503L68.7559 146.071L68.4706 148.068H67.9V144.359L67.3294 142.647L66.4735 146.071L65.9029 145.785L65.3324 141.791V140.935V140.079L64.4765 139.794L63.9059 137.797V135.515L64.4765 135.8L65.0471 137.512H65.6176L66.4735 138.938V139.509H67.6147L67.3294 136.371H67.6147L67.9 133.518Z" fill="#484848"/>
<path d="M54.4911 84.1618H54.7764V86.4441H55.347V84.7324L55.9176 84.4471L56.2029 86.1588L55.6323 87.8706L54.2058 88.1559V88.7265L52.4941 89.8677L51.3529 90.4382L51.6382 91.2941L52.7794 92.15V92.7206H51.9235L51.0676 91.5794V90.4382L49.6411 90.7235L49.9264 92.15L50.497 93.0059L50.2117 93.8618L49.0705 92.4353L48.7852 91.0088H48.2147V89.5824L50.497 88.7265L51.9235 86.4441L52.2088 87.0147L51.6382 88.1559L53.0647 87.5853L54.4911 84.1618Z" fill="#FDFDFD"/>
<path d="M31.3824 9.70001H32.2382V11.9824L30.2412 14.55V15.9765L30.5265 17.403L29.3853 16.8324L28.8147 16.2618V14.55H28.2441H27.3882L28.5294 11.1265H29.3853L29.6706 9.98531L31.3824 9.70001Z" fill="#FDFDFD"/>
<path d="M46.5029 51.0677H47.0735L46.7882 54.2059L46.2176 57.0588V66.7588L45.3618 66.4735L44.5059 63.6206L44.2206 61.9088L45.3618 59.3412L44.5059 59.0559L45.0765 57.6294L44.7912 56.7735L45.9323 53.9206L45.6471 53.35L46.5029 51.0677Z" fill="#F9F9F9"/>
<path d="M53.0647 28.2441L53.9206 28.5294L53.6353 29.1L51.9235 29.6706L52.4941 31.9529L52.7794 32.5235L53.0647 35.6618L52.4941 38.8L51.9235 37.9441L51.3529 39.0853L51.6382 35.6618L50.7823 32.2382V30.2412L52.2088 28.8147L53.0647 28.2441Z" fill="#1E1E1E"/>
<path d="M40.7971 168.894L41.653 169.179L41.0824 169.75L40.5118 170.891L38.2295 172.318L35.0912 172.888H34.2353L33.3795 172.318L33.6647 171.462L36.2324 171.176L35.3765 170.606L39.0853 170.035L40.7971 168.894Z" fill="#333333"/>
<path d="M63.6206 154.344L64.4764 154.629L63.9059 155.771V159.479L63.6206 159.765V163.759L63.9059 164.044L64.1912 168.038L63.05 168.609L62.7647 166.326L62.4794 165.185L62.7647 163.759L63.3353 155.2L59.9117 155.485L60.7676 154.915L63.6206 154.344Z" fill="#373737"/>
<path d="M44.5059 84.7323L45.9323 86.1588L47.6441 88.4412L47.0735 89.5823L47.3588 92.7206H46.2176L45.3617 88.4412H44.7912V85.5882L44.5059 84.7323Z" fill="#3D3D3D"/>
<path d="M44.7911 48.7853H45.3617L45.0764 50.2117L43.3647 54.7765V56.4882L42.2235 55.9176V52.7794H41.6529V52.2088L43.0794 50.7823L43.3647 50.2117H43.9352L44.5058 49.0706L44.7911 48.7853Z" fill="#FDFDFD"/>
<path d="M41.9382 20.2559L42.7941 20.5412L43.9353 22.5382L45.6471 23.3941L45.3618 24.8206L46.2176 27.1029L46.7882 28.8147H47.3588L47.6441 27.9588L47.3588 29.3853H46.5029L45.6471 27.6735L44.7912 26.5324L44.2206 25.6765V24.8206L42.7941 23.3941L42.2235 21.9677L41.9382 20.2559Z" fill="#3F3F3F"/>
<path d="M41.9383 13.1235H42.2236L42.5089 15.4059L43.0794 15.9765L42.5089 20.2559H43.0794L43.3647 21.6824L42.7941 21.3971V20.5412L42.2236 20.8265L43.0794 23.3941L44.5059 24.8206V25.6765L43.3647 25.1059L41.9383 23.6794L41.653 23.1088H42.2236L41.3677 21.6824L41.653 18.2588V14.55L41.9383 13.1235Z" fill="#3F3F3F"/>
<path d="M48.7852 37.6588H49.0705V41.653L48.7852 42.2235L49.3558 42.5088L49.0705 45.9324V48.2147L48.2146 47.3588V46.2177H47.6441L47.9294 44.5059L48.4999 42.7941L48.2146 42.5088L47.9294 43.0794H47.3588L47.9294 40.2265L48.7852 37.6588Z" fill="#464646"/>
<path d="M59.3412 129.524L60.4824 130.665L60.7677 131.806H61.3382L62.4794 134.659V134.088H63.05L63.6206 136.656L63.05 137.227V138.368H62.4794L61.3382 136.085V134.659L60.1971 131.806L59.3412 130.379V129.524Z" fill="#3F3F3F"/>
<path d="M35.0912 112.976L35.6618 113.832V114.688H36.2324L37.3735 118.682L37.9441 122.391L37.3735 122.962L36.803 122.106L35.9471 118.397L35.3765 115.259L35.0912 112.976Z" fill="#828282"/>
<path d="M43.3647 31.9529H43.9352L44.5058 34.2353L43.65 36.2324L42.5088 36.5176L41.6529 35.9471L41.9382 34.2353L43.3647 31.9529Z" fill="#181818"/>
<path d="M51.9235 83.3059L52.4941 83.5912L52.2088 86.4441L50.497 89.0118L49.0705 89.2971L47.6441 88.7265L47.3588 88.1559L49.0705 87.8706L50.497 87.0147L51.9235 83.3059Z" fill="#FDFDFD"/>
<path d="M57.6294 33.3794L58.7706 33.95L59.3412 35.0912L58.2 36.8029L56.7735 36.5176L55.9177 36.2323L56.203 34.5206H56.7735V33.95L57.6294 33.3794Z" fill="#181818"/>
<path d="M37.6588 122.391L38.2294 122.962L38.8 127.526L39.3706 131.521L38.8 131.806L37.9441 128.097V126.671L37.0883 126.385L37.3736 125.529L37.0883 122.676L37.6588 122.391Z" fill="#3F3F3F"/>
<path d="M51.9235 86.4441L52.2088 87.0147L51.6382 88.1559L52.4941 87.8706V88.4412L50.497 89.8677L49.6411 90.7235L49.9264 92.15L50.497 93.0059L50.2117 93.8618L49.0705 92.4353L48.7852 91.0088H48.2147V89.5824L50.497 88.7265L51.9235 86.4441Z" fill="#323232"/>
<path d="M29.1 63.05L29.6706 63.3353L30.8117 67.3294L31.3823 67.6147L31.6676 68.4706V71.3235L31.097 74.1765V75.6029L30.2412 75.8882L29.9559 76.7441L30.2412 75.0323L31.3823 69.0412H30.8117L29.6706 65.9029L29.1 63.05Z" fill="#3F3F3F"/>
<path d="M47.0735 29.9559L48.2147 30.5265L49.0706 33.6647V37.0882L47.9294 38.8L47.6441 38.2294L47.9294 36.2323V32.2382L47.0735 29.9559Z" fill="#333333"/>
<path d="M34.8059 170.606L37.0883 170.891L36.2324 171.462L33.6647 171.747L33.3794 172.318L34.8059 172.888L36.803 172.318H38.2294L37.0883 172.888L35.0912 173.459L35.6618 174.029L33.95 173.744L32.5236 172.318L33.0941 171.176L34.8059 170.606Z" fill="#323232"/>
<path d="M54.2058 88.1559L55.0617 88.4412L54.7764 89.5824H54.2058V90.1529L53.6353 90.4382V91.5794L52.4941 91.2941L52.2088 91.8647L51.3529 91.2941V90.4382L53.6353 88.7265H54.2058V88.1559Z" fill="#565656"/>
<path d="M52.4942 66.4735H52.7795V69.3265L52.2089 71.8941V74.4618L51.6383 76.1735L51.0677 76.4588L51.353 72.75L51.6383 69.6118H52.2089L52.4942 66.4735Z" fill="#3F3F3F"/>
<path d="M39.6559 3.13821L42.2236 4.84998L43.3647 6.27645V7.13233L43.0794 7.70292L41.653 5.99116L40.7971 5.13527L39.0853 4.27939L39.6559 3.9941V3.13821Z" fill="#3D3D3D"/>
<path d="M38.5147 171.176L39.3706 171.462L38.2295 172.318L35.0912 172.888H34.2353L33.3795 172.318L33.6647 171.462H36.5177V172.032L38.5147 171.176Z" fill="#FDFDFD"/>
<path d="M32.5235 37.0882L34.8059 37.3735L37.3735 37.9441L37.6588 39.3706L36.5176 40.2265L36.8029 39.0853L37.0882 38.2294L33.0941 37.6588V38.5147L31.6676 37.9441L31.9529 38.5147L32.8088 38.8V39.3706L33.3794 39.6559L31.3823 39.3706V37.6588L32.5235 37.0882Z" fill="#3D3D3D"/>
<path d="M45.3618 86.7294L46.5029 87.8706L47.0735 92.4353H46.5029L45.0765 88.4412V87.0147L45.3618 86.7294Z" fill="#FDFDFD"/>
<path d="M61.0529 39.0853L61.3382 39.6559V40.5117L62.1941 40.797L62.7647 43.65L63.05 45.9323L62.4794 45.3617L62.1941 43.9353V41.6529H61.6235L61.3382 42.5088L60.7676 42.2235V41.6529H59.9117L60.197 40.5117L61.0529 39.0853Z" fill="#383838"/>
<path d="M67.6148 139.794L68.1854 140.365L68.7559 146.071L68.4706 148.068H67.9001V144.359L67.3295 141.506L67.6148 139.794Z" fill="#494949"/>
<path d="M39.6559 174.315H41.0824L41.3677 174.885L45.6471 174.6L49.9265 175.171L50.2118 175.741L48.2147 175.456H40.7971L39.0853 175.171L39.6559 174.885V174.315Z" fill="#3F3F3F"/>
<path d="M45.0764 159.194H46.5029V160.05L47.3588 160.335L46.2176 164.615L45.647 165.471L45.9323 163.759L46.2176 161.191V159.479L42.5088 160.621L41.6529 160.335L45.0764 159.194Z" fill="#3F3F3F"/>
<path d="M57.3441 77.6L58.2 78.7412L58.4853 79.5971V82.1647L57.0588 80.7382L56.4882 79.8824L57.3441 77.6Z" fill="#FDFDFD"/>
<path d="M41.9382 20.2559L42.7941 20.5412L43.9353 22.5382L44.7912 22.8235V24.5353L43.0794 23.6794L42.2235 22.2529L41.9382 20.2559Z" fill="#FDFDFD"/>
<path d="M41.653 20.2559L42.5089 21.3971L42.7941 23.1088L44.2206 24.5353L44.5059 25.6765L43.3647 25.1059L41.9383 23.6794L41.653 23.1088H42.2236L41.3677 21.6824L41.653 20.2559Z" fill="#2E2E2E"/>
<path d="M43.0795 50.2118V51.0676L42.2236 52.2088H41.653V52.7794H42.2236L42.5089 53.6353L42.2236 55.9176L41.653 54.7765L40.7971 54.4912L41.0824 52.2088L43.0795 50.2118Z" fill="#3F3F3F"/>
<path d="M45.6471 23.6794L46.2177 24.5353L46.7882 27.3882H47.3588V28.8147H46.7882L45.3618 25.9617L45.0765 24.25L45.6471 23.6794Z" fill="#020202"/>
<path d="M44.5059 56.7736L45.3618 57.3441L45.0765 58.7706L44.7912 59.0559L45.3618 59.3412L44.7912 61.3383L44.5059 60.7677H43.9353V57.9147L44.5059 56.7736Z" fill="#484848"/>
<path d="M69.897 161.476L71.3235 162.618L71.8941 163.759L71.6088 165.471L71.0382 165.185L70.4676 164.044V162.618L69.3264 162.332V161.762L69.897 161.476Z" fill="#3D3D3D"/>
<path d="M63.3352 163.759L63.9058 164.044L64.1911 168.038L63.0499 168.609L62.7646 166.612L63.0499 166.326L63.3352 163.759Z" fill="#535353"/>
<path d="M63.9059 135.515L64.4765 135.8L65.0471 137.512H65.6176L66.4735 138.938L66.1882 139.509H65.3324L64.7618 138.368H64.1912L63.9059 137.797V135.515Z" fill="#5D5D5D"/>
<path d="M43.3647 40.7971L44.7912 41.0824L44.5059 41.6529L43.65 41.9382L42.5088 44.5059L41.9382 44.7912L42.5088 42.5088L41.9382 43.0794L42.2235 41.6529L43.3647 41.3676V40.7971Z" fill="#3F3F3F"/>
<path d="M45.6471 21.1118L46.7883 21.6824L48.2147 22.253L47.6442 22.8236H46.7883L46.503 24.25L47.0736 26.2471L46.7883 27.3883L45.9324 24.5353L46.2177 21.9677L45.6471 21.1118Z" fill="#3F3F3F"/>
<path d="M36.5176 170.321H39.0853L38.2294 170.891L38.5147 171.462L36.2323 172.318V171.176L35.3765 170.606L36.5176 170.321Z" fill="#3F3F3F"/>
<path d="M48.2147 44.2206L49.0706 44.7912V48.2147L48.2147 47.3588V46.2177H47.6441L47.9294 44.5059L48.2147 44.2206Z" fill="#444444"/>
<path d="M51.6382 34.8059L52.7794 35.6618V37.6588L52.2088 38.8L51.9235 37.9441L51.3529 39.0853L51.6382 34.8059Z" fill="#3F3F3F"/>
<path d="M55.6323 84.4471L56.2029 85.3029L55.9176 87.5853L54.7764 88.1559V86.4441H55.347V84.7323L55.6323 84.4471Z" fill="#909090"/>
<path d="M48.2147 89.8677L49.3558 90.153L49.6411 91.5794L50.497 93.0059L50.2117 93.8618L49.0705 92.4353L48.7852 91.0089H48.2147V89.8677Z" fill="#FDFDFD"/>
<path d="M47.0735 87.8706L47.6441 88.7265L47.0735 89.297L47.3588 92.7206H46.2177L46.5029 91.8647V92.4353H47.0735L46.2177 88.4412L47.0735 87.8706Z" fill="#3F3F3F"/>
<path d="M46.503 51.0677H47.0736L46.7883 54.2059L45.6471 53.6353L46.503 51.0677Z" fill="#FDFDFD"/>
<path d="M63.6206 154.344L64.4764 154.629L63.9059 155.771L63.3353 156.626V155.2L59.9117 155.485L60.7676 154.915L63.6206 154.344Z" fill="#3F3F3F"/>
<path d="M36.5177 53.6353L37.0883 54.4912V57.6294L36.803 58.2L35.9471 57.9147L36.2324 57.0588L36.5177 55.9176V53.6353Z" fill="#3F3F3F"/>
<path d="M53.0647 47.3588L53.6353 47.6441L53.35 50.2118L52.7794 51.6382H52.4941V48.5H53.0647V47.3588Z" fill="#4B4B4B"/>
<path d="M40.5118 2.85294L42.2235 3.42352L43.3647 4.27941V4.84999H43.9353V5.42058L42.5088 4.84999L40.5118 3.13823V2.85294Z" fill="#3C3C3C"/>
<path d="M54.2058 88.1559L55.0617 88.4412L54.4911 89.5824H53.9206L53.0647 89.8676V89.0118L54.2058 88.7265V88.1559ZM51.3529 90.4382L52.2088 90.7235L51.9235 91.2941L51.3529 91.0088V90.4382Z" fill="#303030"/>
<path d="M48.7853 33.6647H49.0706V37.0883L47.9294 38.8L47.6441 38.2294L47.9294 36.2324L48.7853 35.9471V33.6647Z" fill="#3F3F3F"/>
<path d="M28.2441 60.7677L29.3853 61.053L28.8147 63.9059H28.5294L28.2441 60.7677Z" fill="#545454"/>
<path d="M53.0647 28.2441L53.9206 28.5294L53.6353 29.1L51.9235 29.6706V31.3823H51.6382L51.3529 29.3853L53.0647 28.2441Z" fill="#3A3A3A"/>
</svg>
